<?xml version="1.0" encoding="UTF-8" ?>
<!DOCTYPE svg PUBLIC "-//W3C//DTD SVG 1.1//EN" "http://www.w3.org/Graphics/SVG/1.1/DTD/svg11.dtd">
<svg width="443pt" height="184pt" viewBox="0 0 443 184" version="1.1" xmlns="http://www.w3.org/2000/svg">
<g id="#131113ff">
<path fill="#131113" opacity="1.00" d=" M 0.00 0.00 L 443.00 0.00 L 443.00 184.00 L 0.00 184.00 L 0.00 0.00 M 130.12 16.06 C 121.13 18.78 116.16 29.51 119.87 38.15 C 123.23 47.66 134.47 49.02 141.80 54.24 C 147.29 57.79 147.23 67.20 141.25 70.27 C 135.05 73.72 127.70 70.91 121.82 68.08 C 120.82 70.64 119.66 73.18 119.15 75.90 C 129.57 83.26 148.08 81.08 153.22 68.18 C 154.55 62.19 154.33 54.90 149.67 50.33 C 144.33 44.36 135.63 43.50 129.86 38.14 C 125.23 34.12 126.04 25.33 131.88 22.87 C 137.64 19.99 143.55 23.95 149.23 25.05 C 149.86 22.70 150.51 20.35 151.14 17.99 C 144.66 14.85 137.05 14.37 130.12 16.06 M 242.99 16.99 C 233.53 21.27 230.92 34.73 237.45 42.55 C 242.79 48.92 251.71 49.93 257.94 55.08 C 262.42 59.09 261.77 67.41 256.33 70.32 C 250.10 73.71 242.79 70.89 236.91 68.06 C 235.90 70.72 234.89 73.37 233.99 76.08 C 243.21 81.65 256.88 81.77 264.74 73.74 C 270.53 68.09 270.37 58.37 266.09 51.91 C 261.24 45.09 252.34 43.85 245.95 39.09 C 240.61 35.43 240.61 25.58 246.91 22.91 C 252.62 19.94 258.65 23.83 264.28 25.11 C 264.92 22.73 265.57 20.34 266.22 17.96 C 259.06 14.75 250.30 13.86 242.99 16.99 M 164.78 16.44 C 164.68 37.17 164.75 57.90 164.72 78.63 C 167.42 78.63 170.12 78.63 172.82 78.62 C 172.85 57.90 172.85 37.19 172.82 16.48 C 170.14 16.47 167.46 16.46 164.78 16.44 M 297.92 15.90 C 288.92 36.65 280.59 57.68 271.88 78.54 C 275.01 78.61 278.15 78.63 281.29 78.63 C 283.10 74.30 284.04 69.61 286.24 65.44 C 294.31 64.95 302.43 65.40 310.52 65.26 C 311.99 69.73 313.61 74.14 315.14 78.60 C 317.99 78.63 320.84 78.62 323.69 78.52 C 318.39 59.82 309.74 42.18 303.20 23.86 C 301.94 20.96 301.43 16.93 297.92 15.90 M 187.77 16.64 C 187.75 37.30 187.73 57.96 187.78 78.62 C 190.47 78.61 193.16 78.62 195.86 78.62 C 195.86 70.91 195.86 63.20 195.86 55.49 C 203.53 55.83 211.91 56.12 218.51 51.52 C 228.10 44.29 228.94 26.43 217.83 20.18 C 208.61 15.18 197.83 16.59 187.77 16.64 M 24.00 103.05 C 24.08 104.22 24.16 105.39 24.23 106.57 C 160.82 106.50 297.41 106.42 434.00 106.60 C 434.15 105.39 434.30 104.19 434.45 102.99 C 297.64 102.82 160.81 102.69 24.00 103.05 M 129.59 109.68 C 129.58 111.58 129.56 113.47 129.55 115.37 C 127.89 115.36 126.25 115.36 124.59 115.39 C 123.57 116.53 122.55 117.67 121.53 118.80 C 121.52 120.64 121.51 122.47 121.50 124.30 C 122.59 125.33 123.69 126.36 124.79 127.38 C 127.33 127.35 129.86 127.36 132.40 127.38 C 132.39 121.48 132.41 115.58 132.42 109.68 C 131.71 109.68 130.30 109.68 129.59 109.68 M 176.16 110.68 C 175.23 112.58 174.22 114.44 173.12 116.25 C 175.80 119.70 171.80 127.17 177.10 127.71 C 177.16 124.50 177.16 121.29 177.16 118.09 C 177.83 117.96 179.18 117.70 179.85 117.58 C 179.82 117.03 179.75 115.92 179.72 115.37 C 179.03 115.31 177.66 115.19 176.97 115.14 C 177.18 114.49 177.59 113.21 177.80 112.57 C 178.49 112.56 179.87 112.53 180.57 112.52 C 180.62 111.76 180.72 110.25 180.77 109.49 C 179.22 109.87 177.69 110.27 176.16 110.68 M 289.29 115.40 C 287.71 115.38 286.14 115.37 284.57 115.37 C 283.54 116.45 282.51 117.53 281.48 118.61 C 281.42 120.64 281.41 122.68 281.40 124.72 C 284.15 127.98 288.40 127.43 292.23 127.40 C 292.24 121.37 292.29 115.34 292.17 109.31 C 288.42 109.06 289.63 113.03 289.29 115.40 M 35.50 111.36 C 34.84 112.12 34.18 112.87 33.51 113.63 C 33.50 114.91 33.49 116.18 33.48 117.46 C 35.90 119.43 40.27 120.31 39.93 124.17 C 37.41 124.43 34.90 124.89 32.58 125.97 C 35.86 128.06 39.65 127.47 42.78 125.46 C 44.57 119.59 38.13 118.64 35.64 114.75 C 37.59 114.25 39.55 113.80 41.53 113.39 C 41.51 112.87 41.47 111.82 41.45 111.29 C 39.46 111.28 37.48 111.30 35.50 111.36 M 154.19 111.20 C 153.71 116.69 153.82 122.22 153.88 127.73 C 154.52 127.58 155.80 127.27 156.44 127.12 C 156.97 121.86 156.53 116.54 156.64 111.26 C 156.03 111.24 154.80 111.21 154.19 111.20 M 313.72 111.11 C 313.70 116.52 313.72 121.94 313.70 127.36 C 314.39 127.38 315.78 127.43 316.47 127.45 C 316.49 125.71 316.51 123.97 316.53 122.23 C 320.95 122.68 324.98 118.34 322.96 114.08 C 321.22 110.55 316.94 111.34 313.72 111.11 M 62.77 116.86 C 63.24 117.27 64.19 118.08 64.66 118.49 C 64.60 120.89 64.56 123.30 64.49 125.70 C 66.31 127.03 68.46 127.54 70.71 127.40 C 69.68 125.98 68.60 124.62 67.47 123.28 C 67.43 121.53 67.39 119.77 67.36 118.01 C 68.02 117.90 69.33 117.68 69.99 117.56 C 69.99 117.03 69.97 115.97 69.97 115.43 C 69.38 115.33 68.21 115.12 67.63 115.01 C 67.34 114.22 66.77 112.62 66.49 111.82 C 65.22 113.48 63.99 115.16 62.77 116.86 M 45.37 115.38 C 47.46 119.24 47.16 123.67 47.30 127.91 C 52.07 126.17 48.71 119.17 49.63 115.18 C 48.21 115.24 46.79 115.30 45.37 115.38 M 53.82 115.32 C 53.21 116.61 52.64 117.93 52.13 119.27 C 54.17 120.80 56.25 122.26 58.22 123.87 C 55.96 124.52 53.71 125.19 51.51 126.01 C 53.64 126.67 55.79 127.25 57.97 127.68 C 58.92 126.83 59.88 125.99 60.85 125.15 C 60.89 121.53 57.21 120.32 54.70 118.65 C 56.44 118.26 58.19 117.89 59.95 117.53 C 59.85 116.98 59.66 115.87 59.56 115.32 C 57.65 115.32 55.73 115.32 53.82 115.32 M 73.74 126.22 C 76.23 128.39 79.62 127.16 82.40 126.36 C 82.36 125.66 82.30 124.28 82.27 123.58 C 79.26 125.00 76.01 124.64 73.46 122.49 C 76.37 122.17 79.30 121.99 82.23 121.81 C 82.29 120.99 82.42 119.36 82.48 118.54 C 80.98 116.98 79.50 114.79 76.99 115.21 C 71.35 114.73 69.18 123.38 73.74 126.22 M 84.78 115.41 C 85.66 119.47 82.46 126.37 87.44 127.98 C 87.66 124.54 87.62 121.08 87.66 117.63 C 88.98 117.93 90.29 118.23 91.61 118.53 C 91.62 121.47 91.63 124.41 91.63 127.36 C 92.33 127.38 93.73 127.42 94.43 127.44 C 94.45 124.38 94.47 121.33 94.51 118.27 C 95.81 118.32 97.10 118.37 98.40 118.44 C 98.46 121.44 98.48 124.45 98.50 127.45 C 99.20 127.42 100.59 127.37 101.29 127.34 C 100.93 123.45 102.49 118.67 99.51 115.52 C 94.61 115.26 89.69 115.59 84.78 115.41 M 104.61 115.40 C 104.46 116.06 104.17 117.40 104.02 118.06 C 104.50 118.27 105.45 118.67 105.92 118.87 C 104.20 121.63 103.00 124.76 105.56 127.45 C 108.20 127.35 110.83 127.29 113.47 127.31 C 113.46 124.11 113.45 120.92 113.42 117.73 C 112.73 116.93 112.05 116.13 111.37 115.33 C 109.12 115.28 106.86 115.31 104.61 115.40 M 136.34 115.29 C 134.61 117.65 133.43 120.36 133.28 123.33 C 135.82 127.16 140.15 128.42 144.38 126.51 C 144.48 125.98 144.67 124.91 144.77 124.38 C 141.65 124.61 138.36 124.75 135.85 122.55 C 138.73 122.15 141.63 121.90 144.53 121.70 C 144.54 120.57 144.56 119.45 144.59 118.33 C 142.66 115.54 139.54 114.87 136.34 115.29 M 160.67 115.40 C 160.69 119.39 160.67 123.37 160.67 127.36 C 161.37 127.38 162.78 127.42 163.48 127.44 C 163.49 124.43 163.50 121.41 163.56 118.40 C 164.85 118.37 166.14 118.35 167.44 118.34 C 167.49 121.37 167.51 124.40 167.53 127.43 C 168.24 127.41 169.65 127.37 170.36 127.35 C 169.96 123.46 171.55 118.64 168.52 115.52 C 165.91 115.20 163.29 115.50 160.67 115.40 M 180.31 118.32 C 177.61 123.09 182.10 128.44 187.25 127.68 C 190.00 125.30 191.02 121.94 190.63 118.38 C 188.37 114.81 181.98 113.62 180.31 118.32 M 193.31 115.31 C 194.24 119.31 191.07 125.86 195.55 127.99 C 195.93 124.92 196.18 121.83 196.49 118.75 C 197.93 118.33 199.36 117.91 200.81 117.50 C 200.80 116.96 200.78 115.88 200.77 115.34 C 198.29 115.54 195.79 115.55 193.31 115.31 M 202.66 115.41 C 202.70 119.39 202.68 123.37 202.67 127.36 C 203.36 127.38 204.76 127.42 205.46 127.43 C 205.47 124.14 205.48 120.85 205.55 117.56 C 206.86 117.89 208.18 118.23 209.50 118.56 C 209.50 121.52 209.51 124.48 209.52 127.44 C 210.22 127.42 211.60 127.38 212.30 127.36 C 212.30 124.30 212.32 121.25 212.42 118.19 C 213.71 118.29 215.00 118.40 216.29 118.51 C 217.07 121.55 214.29 127.68 219.09 127.75 C 218.79 123.77 220.19 118.84 217.38 115.56 C 212.49 115.23 207.56 115.66 202.66 115.41 M 221.00 118.04 C 221.83 118.20 223.50 118.51 224.33 118.67 C 221.90 121.22 220.72 124.58 223.31 127.50 C 225.97 127.37 228.64 127.29 231.31 127.31 C 231.30 124.21 231.30 121.11 231.27 118.02 C 230.59 117.14 229.91 116.26 229.25 115.37 C 226.20 115.14 222.49 114.61 221.00 118.04 M 232.49 121.81 C 232.26 127.35 239.57 129.36 242.48 124.78 C 239.86 124.45 234.45 125.17 235.41 120.96 C 234.83 117.26 239.54 118.41 241.84 118.33 C 241.69 117.33 241.54 116.33 241.39 115.33 C 237.09 114.29 231.73 116.72 232.49 121.81 M 244.46 115.38 C 246.47 119.11 246.32 123.35 246.20 127.44 C 246.84 127.42 248.11 127.36 248.74 127.33 C 248.71 123.28 248.74 119.22 248.70 115.17 C 247.28 115.24 245.87 115.31 244.46 115.38 M 251.29 117.28 C 248.94 120.71 250.29 125.42 253.61 127.70 C 257.52 128.06 261.67 125.34 260.91 121.01 C 262.05 115.61 254.04 112.99 251.29 117.28 M 263.60 115.42 C 263.62 119.42 263.63 123.41 263.62 127.40 C 264.32 127.40 265.72 127.41 266.42 127.41 C 266.42 124.40 266.44 121.38 266.53 118.37 C 267.81 118.36 269.10 118.36 270.39 118.38 C 270.44 121.40 270.46 124.43 270.48 127.46 C 271.18 127.44 272.58 127.38 273.27 127.36 C 272.92 123.48 274.42 118.67 271.41 115.57 C 268.82 115.22 266.20 115.52 263.60 115.42 M 295.23 125.73 C 297.62 128.51 301.44 127.23 304.42 126.37 C 304.40 125.69 304.36 124.32 304.34 123.63 C 301.31 125.04 298.05 124.63 295.51 122.46 C 298.42 122.08 301.35 121.88 304.29 121.75 C 304.35 120.94 304.46 119.33 304.51 118.53 C 302.99 117.03 301.53 114.82 299.07 115.18 C 293.78 114.83 291.42 122.47 295.23 125.73 M 325.89 115.35 C 325.84 119.48 325.83 123.60 325.90 127.72 C 330.00 128.03 328.17 123.44 328.78 120.95 C 328.82 118.40 331.85 118.02 333.67 117.19 C 333.69 116.72 333.74 115.80 333.76 115.33 C 331.14 115.52 328.51 115.56 325.89 115.35 M 337.20 115.16 C 334.59 117.64 332.91 121.70 335.02 125.00 C 337.34 127.94 341.25 127.66 344.50 126.72 C 344.67 126.14 344.99 124.96 345.16 124.38 C 341.99 124.62 338.52 124.91 336.21 122.28 C 339.22 121.96 342.25 121.82 345.28 121.69 C 345.52 116.94 341.62 114.35 337.20 115.16 M 349.56 115.32 C 348.52 116.42 347.47 117.51 346.43 118.61 C 346.39 120.57 346.39 122.54 346.42 124.51 C 347.51 125.47 348.60 126.42 349.69 127.37 C 350.64 127.39 352.54 127.41 353.49 127.43 C 354.35 126.51 355.21 125.60 356.07 124.69 C 353.47 124.46 348.42 125.18 349.22 121.07 C 348.78 117.30 353.23 118.39 355.64 118.30 C 355.54 117.36 355.45 116.42 355.36 115.49 C 353.42 115.40 351.49 115.34 349.56 115.32 M 358.29 115.34 C 360.20 119.08 359.77 123.31 359.73 127.35 C 360.43 127.38 361.83 127.43 362.53 127.46 C 362.53 123.39 362.52 119.32 362.53 115.25 C 361.11 115.28 359.70 115.31 358.29 115.34 M 371.35 127.72 C 376.78 124.57 375.55 113.75 368.16 115.32 C 360.76 116.79 363.52 129.54 371.35 127.72 M 379.24 115.39 C 378.65 116.05 378.05 116.70 377.46 117.36 C 377.46 117.88 377.45 118.94 377.45 119.46 C 379.39 120.90 381.33 122.34 383.20 123.89 C 380.95 124.52 378.72 125.18 376.54 126.00 C 378.65 126.76 380.82 127.36 383.05 127.67 C 383.86 126.90 384.68 126.13 385.51 125.37 C 385.51 124.36 385.51 123.35 385.52 122.35 C 383.56 121.12 381.60 119.91 379.67 118.67 C 381.42 118.26 383.19 117.88 384.97 117.51 C 384.87 116.95 384.67 115.83 384.57 115.27 C 382.79 115.31 381.01 115.35 379.24 115.39 M 393.79 115.19 C 395.08 119.02 396.53 122.80 397.76 126.64 C 396.41 128.18 395.22 129.85 394.44 131.76 C 402.02 130.28 402.39 120.61 403.92 114.47 C 400.70 115.96 400.26 119.79 398.95 122.68 C 398.13 120.23 397.34 117.78 396.51 115.35 C 395.83 115.31 394.47 115.23 393.79 115.19 M 26.58 139.55 C 26.60 144.76 26.81 149.98 26.30 155.18 C 23.69 150.31 22.05 144.99 19.44 140.12 C 16.02 145.58 13.84 151.71 11.74 157.76 C 14.15 157.20 15.49 155.29 16.44 153.17 C 18.47 153.19 20.51 153.22 22.54 153.26 C 23.03 154.57 23.52 155.89 23.99 157.21 C 28.58 156.97 35.88 158.63 37.50 152.78 C 39.00 147.69 34.23 143.97 29.45 144.59 C 29.47 142.87 29.47 141.15 29.48 139.43 C 28.51 139.47 27.55 139.51 26.58 139.55 M 187.84 139.45 C 187.78 141.34 187.74 143.23 187.70 145.13 C 182.49 143.63 177.84 149.05 180.12 153.93 C 181.82 158.17 186.93 157.19 190.57 157.25 C 190.55 151.36 190.56 145.47 190.56 139.58 C 189.88 139.55 188.52 139.48 187.84 139.45 M 205.49 139.41 C 205.46 144.82 205.43 150.23 205.53 155.64 C 206.90 156.23 208.30 156.77 209.71 157.28 C 207.49 151.65 208.41 145.53 208.30 139.63 C 207.36 139.56 206.43 139.48 205.49 139.41 M 217.55 143.18 C 217.54 144.38 217.53 145.58 217.51 146.79 C 219.76 148.72 222.29 150.29 224.77 151.90 C 224.32 152.52 223.41 153.75 222.96 154.37 C 221.40 154.39 219.84 154.42 218.28 154.44 C 218.29 155.08 218.32 156.34 218.33 156.98 C 222.13 157.98 225.87 156.58 227.79 153.10 C 226.45 149.14 222.45 147.51 219.56 144.91 C 221.52 144.26 223.52 143.66 225.53 143.16 C 225.54 142.56 225.55 141.35 225.55 140.74 C 222.61 140.49 219.76 141.14 217.55 143.18 M 289.15 157.08 C 289.85 157.15 291.26 157.29 291.97 157.36 C 292.65 155.98 293.35 154.61 294.04 153.24 C 295.84 153.25 297.65 153.26 299.46 153.27 C 300.55 155.38 301.86 157.58 304.54 157.75 C 302.47 151.63 300.04 145.61 296.99 139.91 C 293.42 145.16 291.71 151.33 289.15 157.08 M 63.20 145.83 C 66.02 149.26 62.29 156.37 67.96 157.16 C 71.63 158.20 69.22 153.83 67.42 153.09 C 67.43 151.45 67.44 149.82 67.45 148.19 C 68.62 147.46 69.79 146.72 70.96 145.98 C 69.83 145.48 68.71 144.99 67.59 144.51 C 67.27 143.83 66.63 142.45 66.32 141.76 C 65.27 143.11 64.25 144.48 63.20 145.83 M 152.56 145.70 C 154.93 149.42 152.69 154.81 156.53 157.65 C 157.42 157.25 159.19 156.45 160.08 156.05 C 158.94 155.08 157.80 154.12 156.65 153.18 C 156.66 151.36 156.66 149.54 156.66 147.72 C 157.35 147.67 158.72 147.56 159.41 147.50 C 159.46 146.98 159.57 145.92 159.62 145.40 C 158.95 145.21 157.61 144.85 156.94 144.67 C 156.65 143.69 156.35 142.71 156.06 141.74 C 154.87 143.04 153.71 144.37 152.56 145.70 M 252.69 145.73 C 254.58 149.02 254.30 152.85 254.56 156.50 C 256.26 156.64 257.96 156.78 259.67 156.92 C 259.62 156.41 259.52 155.39 259.47 154.88 C 258.57 154.33 257.67 153.79 256.78 153.24 C 256.80 151.39 256.82 149.54 256.84 147.70 C 257.53 147.65 258.90 147.56 259.59 147.51 C 259.63 146.97 259.73 145.90 259.77 145.36 C 259.11 145.18 257.79 144.83 257.12 144.65 C 256.89 143.91 256.43 142.43 256.19 141.68 C 255.00 143.02 253.84 144.37 252.69 145.73 M 306.50 153.02 C 306.12 155.00 305.63 157.00 305.77 159.03 C 308.16 162.83 313.16 161.18 316.52 159.83 C 316.55 159.06 316.62 157.53 316.66 156.76 C 314.24 155.96 311.73 155.51 309.20 155.33 C 315.02 154.61 316.03 148.99 315.26 144.08 C 309.94 143.97 302.82 146.46 306.50 153.02 M 40.53 145.52 C 40.51 146.53 40.49 147.55 40.46 148.56 C 42.60 148.29 44.73 147.98 46.87 147.73 C 44.38 149.26 39.55 150.03 40.28 153.95 C 40.51 158.73 46.75 156.15 49.82 156.68 C 49.69 153.59 49.96 150.47 49.40 147.42 C 47.69 144.00 43.56 144.91 40.53 145.52 M 52.46 146.09 C 52.48 147.17 52.50 148.25 52.51 149.34 C 54.45 150.68 56.39 152.01 58.33 153.36 C 56.40 153.85 54.48 154.34 52.55 154.81 C 52.53 155.27 52.50 156.20 52.48 156.67 C 55.23 157.24 58.03 157.14 60.55 155.81 C 60.53 154.61 60.52 153.41 60.52 152.22 C 58.63 150.99 56.72 149.80 54.83 148.60 C 56.49 148.15 58.16 147.72 59.84 147.31 C 59.81 146.75 59.74 145.62 59.71 145.06 C 57.26 145.10 54.79 145.26 52.46 146.09 M 71.98 154.06 C 74.23 158.32 81.78 158.68 82.87 153.37 C 79.52 154.43 75.94 154.87 73.42 151.91 C 76.49 151.70 79.58 151.66 82.66 151.57 C 82.44 148.04 80.37 145.36 76.99 144.33 C 72.93 145.58 69.67 149.93 71.98 154.06 M 83.49 150.98 C 82.93 155.76 88.25 158.47 92.26 156.48 C 92.41 156.01 92.72 155.07 92.87 154.60 C 90.62 154.25 88.39 153.81 86.17 153.31 C 86.33 151.18 86.91 149.13 88.31 147.48 C 89.83 147.61 91.35 147.72 92.88 147.83 C 92.77 147.20 92.57 145.94 92.46 145.31 C 88.46 144.20 83.12 146.12 83.49 150.98 M 95.55 144.85 C 97.35 148.75 97.40 153.05 97.25 157.26 C 97.87 157.26 99.13 157.26 99.76 157.26 C 99.76 153.11 99.77 148.96 99.72 144.81 C 98.33 144.82 96.94 144.83 95.55 144.85 M 102.49 145.31 C 102.55 149.25 102.53 153.19 102.50 157.13 C 103.21 157.19 104.63 157.30 105.34 157.36 C 105.33 153.98 105.30 150.61 105.39 147.24 C 111.07 147.35 109.09 153.42 109.34 157.22 C 110.05 157.23 111.46 157.23 112.17 157.24 C 112.73 154.02 110.63 149.20 114.03 147.27 C 117.47 149.28 115.78 153.98 116.23 157.24 C 116.86 157.24 118.10 157.23 118.73 157.23 C 118.22 153.47 120.04 148.67 117.33 145.62 C 112.46 144.91 107.42 145.57 102.49 145.31 M 121.26 145.25 C 123.29 148.96 122.73 153.24 122.76 157.30 C 123.47 157.26 124.87 157.19 125.58 157.15 C 125.56 153.02 125.56 148.89 125.51 144.76 C 124.09 144.92 122.67 145.09 121.26 145.25 M 126.77 151.00 C 126.46 156.81 133.13 158.31 137.53 156.48 C 137.59 155.46 137.66 154.45 137.73 153.44 C 134.60 154.68 131.41 154.46 128.95 151.96 C 131.87 151.72 134.80 151.67 137.73 151.61 C 137.66 150.13 137.59 148.65 137.53 147.18 C 133.85 142.99 126.57 145.08 126.77 151.00 M 140.41 145.35 C 140.49 149.28 140.47 153.21 140.45 157.14 C 141.15 157.18 142.54 157.27 143.23 157.31 C 143.33 153.91 142.78 150.31 144.35 147.15 C 145.09 147.57 146.57 148.43 147.31 148.85 C 147.28 151.64 147.29 154.44 147.30 157.23 C 147.92 157.23 149.17 157.23 149.80 157.23 C 149.37 153.43 151.04 148.68 148.42 145.54 C 145.79 144.91 143.08 145.46 140.41 145.35 M 163.45 145.60 C 157.76 148.75 161.27 159.21 167.89 157.00 C 175.28 154.64 170.94 141.12 163.45 145.60 M 193.08 154.98 C 195.31 158.08 199.34 157.16 202.51 156.47 C 202.58 155.46 202.66 154.46 202.74 153.46 C 199.63 154.64 196.30 154.63 193.94 151.95 C 196.96 151.71 199.99 151.66 203.02 151.55 C 202.80 148.84 202.06 145.59 198.91 145.01 C 193.48 143.34 189.61 150.98 193.08 154.98 M 228.33 153.57 C 230.98 157.12 235.30 157.92 239.31 156.30 C 239.33 155.56 239.36 154.08 239.38 153.34 C 236.31 154.68 232.96 154.65 230.62 151.95 C 233.70 151.65 236.80 151.69 239.88 151.42 C 239.47 147.94 237.29 145.36 233.98 144.30 C 229.85 145.54 227.79 149.43 228.33 153.57 M 240.37 148.65 C 239.49 153.87 243.91 159.28 249.30 156.52 C 249.45 156.04 249.75 155.07 249.90 154.59 C 247.69 154.24 245.50 153.80 243.32 153.31 C 242.30 148.80 246.15 147.18 249.98 147.51 C 249.85 146.97 249.59 145.88 249.45 145.34 C 245.87 144.36 242.48 145.62 240.37 148.65 M 264.26 145.30 C 258.04 147.71 261.05 159.22 267.90 157.02 C 275.11 155.20 271.80 141.76 264.26 145.30 M 274.51 145.10 C 274.51 149.11 274.51 153.11 274.51 157.12 C 275.19 157.17 276.55 157.28 277.23 157.33 C 277.29 154.47 277.34 151.61 277.49 148.75 C 279.11 148.21 280.73 147.68 282.37 147.18 C 282.44 146.69 282.57 145.71 282.63 145.22 C 279.92 145.41 277.21 145.47 274.51 145.10 M 317.78 144.94 C 317.74 149.06 317.74 153.17 317.76 157.28 C 318.46 157.25 319.85 157.18 320.55 157.15 C 320.18 152.90 319.90 147.33 325.59 147.12 C 325.63 146.63 325.71 145.66 325.75 145.17 C 323.09 145.48 320.41 145.53 317.78 144.94 M 329.25 145.26 C 322.98 147.67 326.01 159.39 332.94 157.02 C 340.12 155.18 336.79 141.82 329.25 145.26 M 338.25 145.08 C 338.26 150.48 338.22 155.88 338.22 161.29 C 338.86 161.28 340.14 161.27 340.78 161.27 C 340.78 160.00 340.78 158.75 340.78 157.49 C 345.19 157.80 350.25 155.19 348.85 150.01 C 349.04 144.05 342.24 145.16 338.25 145.08 M 351.86 155.15 C 354.52 158.48 361.00 158.05 361.83 153.37 C 358.46 154.37 354.87 154.96 352.37 151.90 C 355.28 151.70 358.21 151.66 361.14 151.65 C 361.23 150.86 361.41 149.29 361.50 148.50 C 359.82 146.73 357.81 144.15 355.03 144.92 C 350.56 145.74 348.62 151.99 351.86 155.15 M 362.47 150.97 C 361.84 155.76 367.28 158.46 371.26 156.49 C 371.41 156.01 371.70 155.06 371.85 154.59 C 369.59 154.21 367.35 153.77 365.13 153.26 C 365.29 151.14 365.98 149.15 367.30 147.47 C 368.84 147.60 370.38 147.71 371.93 147.83 C 371.80 147.20 371.55 145.95 371.42 145.32 C 367.41 144.16 362.13 146.13 362.47 150.97 M 374.71 144.71 C 374.92 148.57 373.75 152.84 375.77 156.38 C 378.58 156.93 381.47 156.78 384.30 157.26 C 384.29 153.09 384.30 148.92 384.29 144.75 C 383.59 144.79 382.19 144.88 381.50 144.92 C 381.50 147.65 381.49 150.38 381.50 153.11 C 380.74 153.53 379.23 154.39 378.48 154.82 C 377.21 151.71 377.43 148.33 377.43 145.05 C 376.75 144.97 375.39 144.79 374.71 144.71 M 387.34 145.47 C 387.36 146.54 387.39 147.61 387.42 148.68 C 389.19 148.28 390.98 147.87 392.76 147.47 L 392.97 148.23 C 390.38 149.00 388.10 150.46 386.43 152.59 C 386.86 153.80 387.30 155.01 387.74 156.23 C 388.26 156.44 389.30 156.87 389.82 157.08 C 392.04 156.80 394.28 156.64 396.52 156.64 C 396.46 153.48 396.45 150.32 396.47 147.17 C 393.98 144.66 390.58 144.53 387.34 145.47 M 399.26 144.52 C 399.17 148.76 399.20 153.00 399.22 157.24 C 399.84 157.24 401.08 157.24 401.70 157.24 C 401.41 153.08 401.15 147.54 406.64 147.12 C 406.68 146.54 406.77 145.38 406.81 144.80 C 405.33 145.12 403.86 145.45 402.40 145.79 C 401.35 145.36 400.30 144.94 399.26 144.52 M 408.33 145.21 C 410.34 148.93 409.80 153.20 409.82 157.26 C 410.52 157.24 411.93 157.20 412.63 157.18 C 412.62 153.00 412.62 148.82 412.59 144.64 C 411.16 144.82 409.74 145.02 408.33 145.21 M 417.25 145.28 C 411.33 147.74 413.96 159.25 420.92 157.06 C 428.11 155.14 424.83 141.72 417.25 145.28 Z" />
</g>
<g id="#fdfcfeff">
<path fill="#fdfcfe" opacity="1.00" d=" M 130.12 16.06 C 137.05 14.37 144.66 14.85 151.14 17.99 C 150.51 20.35 149.86 22.70 149.23 25.05 C 143.55 23.95 137.64 19.99 131.88 22.87 C 126.04 25.33 125.23 34.12 129.86 38.14 C 135.63 43.50 144.33 44.36 149.67 50.33 C 154.33 54.90 154.55 62.19 153.22 68.18 C 148.08 81.08 129.57 83.26 119.15 75.90 C 119.66 73.18 120.82 70.64 121.82 68.08 C 127.70 70.91 135.05 73.72 141.25 70.27 C 147.23 67.20 147.29 57.79 141.80 54.24 C 134.47 49.02 123.23 47.66 119.87 38.15 C 116.16 29.51 121.13 18.78 130.12 16.06 Z" />
<path fill="#fdfcfe" opacity="1.00" d=" M 242.99 16.99 C 250.30 13.86 259.06 14.75 266.22 17.96 C 265.57 20.34 264.92 22.73 264.28 25.11 C 258.65 23.83 252.62 19.94 246.91 22.91 C 240.61 25.58 240.61 35.43 245.95 39.09 C 252.34 43.85 261.24 45.09 266.09 51.91 C 270.37 58.37 270.53 68.09 264.74 73.74 C 256.88 81.77 243.21 81.65 233.99 76.08 C 234.89 73.37 235.90 70.72 236.91 68.06 C 242.79 70.89 250.10 73.71 256.33 70.32 C 261.77 67.41 262.42 59.09 257.94 55.08 C 251.71 49.93 242.79 48.92 237.45 42.55 C 230.92 34.73 233.53 21.27 242.99 16.99 Z" />
<path fill="#fdfcfe" opacity="1.00" d=" M 63.20 145.83 C 64.25 144.48 65.27 143.11 66.32 141.76 C 66.63 142.45 67.27 143.83 67.59 144.51 C 68.71 144.99 69.83 145.48 70.96 145.98 C 69.79 146.72 68.62 147.46 67.45 148.19 C 67.44 149.82 67.43 151.45 67.42 153.09 C 69.22 153.83 71.63 158.20 67.96 157.16 C 62.29 156.37 66.02 149.26 63.20 145.83 Z" />
</g>
<g id="#fffeffff">
<path fill="#fffeff" opacity="1.00" d=" M 164.78 16.44 C 167.46 16.46 170.14 16.47 172.82 16.48 C 172.85 37.19 172.85 57.90 172.82 78.62 C 170.12 78.63 167.42 78.63 164.72 78.63 C 164.75 57.90 164.68 37.17 164.78 16.44 Z" />
</g>
<g id="#fefcfeff">
<path fill="#fefcfe" opacity="1.00" d=" M 297.92 15.90 C 301.43 16.93 301.94 20.96 303.20 23.86 C 309.74 42.18 318.39 59.82 323.69 78.52 C 320.84 78.62 317.99 78.63 315.14 78.60 C 313.61 74.14 311.99 69.73 310.52 65.26 C 302.43 65.40 294.31 64.95 286.24 65.44 C 284.04 69.61 283.10 74.30 281.29 78.63 C 278.15 78.63 275.01 78.61 271.88 78.54 C 280.59 57.68 288.92 36.65 297.92 15.90 M 298.15 31.99 C 295.00 40.76 291.43 49.40 288.79 58.35 C 295.10 58.46 301.42 58.44 307.74 58.36 C 304.79 49.49 301.50 40.72 298.15 31.99 Z" />
<path fill="#fefcfe" opacity="1.00" d=" M 313.72 111.11 C 316.94 111.34 321.22 110.55 322.96 114.08 C 324.98 118.34 320.95 122.68 316.53 122.23 C 316.51 123.97 316.49 125.71 316.47 127.45 C 315.78 127.43 314.39 127.38 313.70 127.36 C 313.72 121.94 313.70 116.52 313.72 111.11 M 316.64 113.12 C 316.54 115.29 316.50 117.46 316.50 119.64 C 317.97 119.14 319.45 118.63 320.93 118.11 C 320.89 115.43 319.01 113.92 316.64 113.12 Z" />
<path fill="#fefcfe" opacity="1.00" d=" M 374.71 144.71 C 375.39 144.79 376.75 144.97 377.43 145.05 C 377.43 148.33 377.21 151.71 378.48 154.82 C 379.23 154.39 380.74 153.53 381.50 153.11 C 381.49 150.38 381.50 147.65 381.50 144.92 C 382.19 144.88 383.59 144.79 384.29 144.75 C 384.30 148.92 384.29 153.09 384.30 157.26 C 381.47 156.78 378.58 156.93 375.77 156.38 C 373.75 152.84 374.92 148.57 374.71 144.71 Z" />
</g>
<g id="#fefdfeff">
<path fill="#fefdfe" opacity="1.00" d=" M 187.77 16.64 C 197.83 16.59 208.61 15.18 217.83 20.18 C 228.94 26.43 228.10 44.29 218.51 51.52 C 211.91 56.12 203.53 55.83 195.86 55.49 C 195.86 63.20 195.86 70.91 195.86 78.62 C 193.16 78.62 190.47 78.61 187.78 78.62 C 187.73 57.96 187.75 37.30 187.77 16.64 M 196.35 47.46 C 201.95 47.51 208.04 48.15 212.99 44.95 C 218.63 41.38 219.50 32.09 214.08 27.94 C 208.99 24.14 202.31 24.48 196.30 24.57 C 195.63 32.18 195.61 39.86 196.35 47.46 Z" />
<path fill="#fefdfe" opacity="1.00" d=" M 325.89 115.35 C 328.51 115.56 331.14 115.52 333.76 115.33 C 333.74 115.80 333.69 116.72 333.67 117.19 C 331.85 118.02 328.82 118.40 328.78 120.95 C 328.17 123.44 330.00 128.03 325.90 127.72 C 325.83 123.60 325.84 119.48 325.89 115.35 Z" />
</g>
<g id="#141114ff">
<path fill="#141114" opacity="1.00" d=" M 196.35 47.46 C 195.61 39.86 195.63 32.18 196.30 24.57 C 202.31 24.48 208.99 24.14 214.08 27.94 C 219.50 32.09 218.63 41.38 212.99 44.95 C 208.04 48.15 201.95 47.51 196.35 47.46 Z" />
</g>
<g id="#141215ff">
<path fill="#141215" opacity="1.00" d=" M 298.15 31.99 C 301.50 40.72 304.79 49.49 307.74 58.36 C 301.42 58.44 295.10 58.46 288.79 58.35 C 291.43 49.40 295.00 40.76 298.15 31.99 Z" />
</g>
<g id="#646264ff">
<path fill="#646264" opacity="1.00" d=" M 24.00 103.05 C 160.81 102.69 297.64 102.82 434.45 102.99 C 434.30 104.19 434.15 105.39 434.00 106.60 C 297.41 106.42 160.82 106.50 24.23 106.57 C 24.16 105.39 24.08 104.22 24.00 103.05 Z" />
</g>
<g id="#f8f6f8ff">
<path fill="#f8f6f8" opacity="1.00" d=" M 129.59 109.68 C 130.30 109.68 131.71 109.68 132.42 109.68 C 132.41 115.58 132.39 121.48 132.40 127.38 C 129.86 127.36 127.33 127.35 124.79 127.38 C 123.69 126.36 122.59 125.33 121.50 124.30 C 121.51 122.47 121.52 120.64 121.53 118.80 C 122.55 117.67 123.57 116.53 124.59 115.39 C 126.25 115.36 127.89 115.36 129.55 115.37 C 129.56 113.47 129.58 111.58 129.59 109.68 M 124.31 121.12 C 123.59 124.30 127.25 124.64 129.50 124.85 C 129.54 122.56 129.53 120.27 129.47 117.98 C 127.46 118.24 123.91 118.14 124.31 121.12 Z" />
</g>
<g id="#fdfcfdff">
<path fill="#fdfcfd" opacity="1.00" d=" M 176.16 110.68 C 177.69 110.27 179.22 109.87 180.77 109.49 C 180.72 110.25 180.62 111.76 180.57 112.52 C 179.87 112.53 178.49 112.56 177.80 112.57 C 177.59 113.21 177.18 114.49 176.97 115.14 C 177.66 115.19 179.03 115.31 179.72 115.37 C 179.75 115.92 179.82 117.03 179.85 117.58 C 179.18 117.70 177.83 117.96 177.16 118.09 C 177.16 121.29 177.16 124.50 177.10 127.71 C 171.80 127.17 175.80 119.70 173.12 116.25 C 174.22 114.44 175.23 112.58 176.16 110.68 Z" />
<path fill="#fdfcfd" opacity="1.00" d=" M 121.26 145.25 C 122.67 145.09 124.09 144.92 125.51 144.76 C 125.56 148.89 125.56 153.02 125.58 157.15 C 124.87 157.19 123.47 157.26 122.76 157.30 C 122.73 153.24 123.29 148.96 121.26 145.25 Z" />
<path fill="#fdfcfd" opacity="1.00" d=" M 408.33 145.21 C 409.74 145.02 411.16 144.82 412.59 144.64 C 412.62 148.82 412.62 153.00 412.63 157.18 C 411.93 157.20 410.52 157.24 409.82 157.26 C 409.80 153.20 410.34 148.93 408.33 145.21 Z" />
</g>
<g id="#f9f8f9ff">
<path fill="#f9f8f9" opacity="1.00" d=" M 289.29 115.40 C 289.63 113.03 288.42 109.06 292.17 109.31 C 292.29 115.34 292.24 121.37 292.23 127.40 C 288.40 127.43 284.15 127.98 281.40 124.72 C 281.41 122.68 281.42 120.64 281.48 118.61 C 282.51 117.53 283.54 116.45 284.57 115.37 C 286.14 115.37 287.71 115.38 289.29 115.40 M 284.44 118.52 C 283.14 122.29 285.31 125.41 289.37 124.77 C 289.41 122.59 289.42 120.41 289.43 118.23 C 287.76 118.29 286.09 118.39 284.44 118.52 Z" />
</g>
<g id="#f7f5f7ff">
<path fill="#f7f5f7" opacity="1.00" d=" M 35.50 111.36 C 37.48 111.30 39.46 111.28 41.45 111.29 C 41.47 111.82 41.51 112.87 41.53 113.39 C 39.55 113.80 37.59 114.25 35.64 114.75 C 38.13 118.64 44.57 119.59 42.78 125.46 C 39.65 127.47 35.86 128.06 32.58 125.97 C 34.90 124.89 37.41 124.43 39.93 124.17 C 40.27 120.31 35.90 119.43 33.48 117.46 C 33.49 116.18 33.50 114.91 33.51 113.63 C 34.18 112.87 34.84 112.12 35.50 111.36 Z" />
</g>
<g id="#ffffffff">
<path fill="#ffffff" opacity="1.00" d=" M 154.19 111.20 C 154.80 111.21 156.03 111.24 156.64 111.26 C 156.53 116.54 156.97 121.86 156.44 127.12 C 155.80 127.27 154.52 127.58 153.88 127.73 C 153.82 122.22 153.71 116.69 154.19 111.20 Z" />
</g>
<g id="#fcfafcff">
<path fill="#fcfafc" opacity="1.00" d=" M 62.77 116.86 C 63.99 115.16 65.22 113.48 66.49 111.82 C 66.77 112.62 67.34 114.22 67.63 115.01 C 68.21 115.12 69.38 115.33 69.97 115.43 C 69.97 115.97 69.99 117.03 69.99 117.56 C 69.33 117.68 68.02 117.90 67.36 118.01 C 67.39 119.77 67.43 121.53 67.47 123.28 C 68.60 124.62 69.68 125.98 70.71 127.40 C 68.46 127.54 66.31 127.03 64.49 125.70 C 64.56 123.30 64.60 120.89 64.66 118.49 C 64.19 118.08 63.24 117.27 62.77 116.86 Z" />
</g>
<g id="#252225ff">
<path fill="#252225" opacity="1.00" d=" M 316.64 113.12 C 319.01 113.92 320.89 115.43 320.93 118.11 C 319.45 118.63 317.97 119.14 316.50 119.64 C 316.50 117.46 316.54 115.29 316.64 113.12 Z" />
</g>
<g id="#fdfbfdff">
<path fill="#fdfbfd" opacity="1.00" d=" M 45.37 115.38 C 46.79 115.30 48.21 115.24 49.63 115.18 C 48.71 119.17 52.07 126.17 47.30 127.91 C 47.16 123.67 47.46 119.24 45.37 115.38 Z" />
<path fill="#fdfbfd" opacity="1.00" d=" M 358.29 115.34 C 359.70 115.31 361.11 115.28 362.53 115.25 C 362.52 119.32 362.53 123.39 362.53 127.46 C 361.83 127.43 360.43 127.38 359.73 127.35 C 359.77 123.31 360.20 119.08 358.29 115.34 Z" />
</g>
<g id="#f5f2f6ff">
<path fill="#f5f2f6" opacity="1.00" d=" M 53.82 115.32 C 55.73 115.32 57.65 115.32 59.56 115.32 C 59.66 115.87 59.85 116.98 59.95 117.53 C 58.19 117.89 56.44 118.26 54.70 118.65 C 57.21 120.32 60.89 121.53 60.85 125.15 C 59.88 125.99 58.92 126.83 57.97 127.68 C 55.79 127.25 53.64 126.67 51.51 126.01 C 53.71 125.19 55.96 124.52 58.22 123.87 C 56.25 122.26 54.17 120.80 52.13 119.27 C 52.64 117.93 53.21 116.61 53.82 115.32 Z" />
</g>
<g id="#eeebefff">
<path fill="#eeebef" opacity="1.00" d=" M 73.74 126.22 C 69.18 123.38 71.35 114.73 76.99 115.21 C 79.50 114.79 80.98 116.98 82.48 118.54 C 82.42 119.36 82.29 120.99 82.23 121.81 C 79.30 121.99 76.37 122.17 73.46 122.49 C 76.01 124.64 79.26 125.00 82.27 123.58 C 82.30 124.28 82.36 125.66 82.40 126.36 C 79.62 127.16 76.23 128.39 73.74 126.22 Z" />
</g>
<g id="#fdfafdff">
<path fill="#fdfafd" opacity="1.00" d=" M 84.78 115.41 C 89.69 115.59 94.61 115.26 99.51 115.52 C 102.49 118.67 100.93 123.45 101.29 127.34 C 100.59 127.37 99.20 127.42 98.50 127.45 C 98.48 124.45 98.46 121.44 98.40 118.44 C 97.10 118.37 95.81 118.32 94.51 118.27 C 94.47 121.33 94.45 124.38 94.43 127.44 C 93.73 127.42 92.33 127.38 91.63 127.36 C 91.63 124.41 91.62 121.47 91.61 118.53 C 90.29 118.23 88.98 117.93 87.66 117.63 C 87.62 121.08 87.66 124.54 87.44 127.98 C 82.46 126.37 85.66 119.47 84.78 115.41 Z" />
<path fill="#fdfafd" opacity="1.00" d=" M 152.56 145.70 C 153.71 144.37 154.87 143.04 156.06 141.74 C 156.35 142.71 156.65 143.69 156.94 144.67 C 157.61 144.85 158.95 145.21 159.62 145.40 C 159.57 145.92 159.46 146.98 159.41 147.50 C 158.72 147.56 157.35 147.67 156.66 147.72 C 156.66 149.54 156.66 151.36 156.65 153.18 C 157.80 154.12 158.94 155.08 160.08 156.05 C 159.19 156.45 157.42 157.25 156.53 157.65 C 152.69 154.81 154.93 149.42 152.56 145.70 Z" />
</g>
<g id="#e6e4e7ff">
<path fill="#e6e4e7" opacity="1.00" d=" M 104.61 115.40 C 106.86 115.31 109.12 115.28 111.37 115.33 C 112.05 116.13 112.73 116.93 113.42 117.73 C 113.45 120.92 113.46 124.11 113.47 127.31 C 110.83 127.29 108.20 127.35 105.56 127.45 C 103.00 124.76 104.20 121.63 105.92 118.87 C 105.45 118.67 104.50 118.27 104.02 118.06 C 104.17 117.40 104.46 116.06 104.61 115.40 Z" />
</g>
<g id="#f4f2f4ff">
<path fill="#f4f2f4" opacity="1.00" d=" M 136.34 115.29 C 139.54 114.87 142.66 115.54 144.59 118.33 C 144.56 119.45 144.54 120.57 144.53 121.70 C 141.63 121.90 138.73 122.15 135.85 122.55 C 138.36 124.75 141.65 124.61 144.77 124.38 C 144.67 124.91 144.48 125.98 144.38 126.51 C 140.15 128.42 135.82 127.16 133.28 123.33 C 133.43 120.36 134.61 117.65 136.34 115.29 Z" />
<path fill="#f4f2f4" opacity="1.00" d=" M 349.56 115.32 C 351.49 115.34 353.42 115.40 355.36 115.49 C 355.45 116.42 355.54 117.36 355.64 118.30 C 353.23 118.39 348.78 117.30 349.22 121.07 C 348.42 125.18 353.47 124.46 356.07 124.69 C 355.21 125.60 354.35 126.51 353.49 127.43 C 352.54 127.41 350.64 127.39 349.69 127.37 C 348.60 126.42 347.51 125.47 346.42 124.51 C 346.39 122.54 346.39 120.57 346.43 118.61 C 347.47 117.51 348.52 116.42 349.56 115.32 Z" />
<path fill="#f4f2f4" opacity="1.00" d=" M 163.45 145.60 C 170.94 141.12 175.28 154.64 167.89 157.00 C 161.27 159.21 157.76 148.75 163.45 145.60 M 163.25 152.81 C 164.03 153.32 165.58 154.34 166.36 154.85 C 169.73 152.83 169.32 148.54 165.86 146.85 C 164.44 148.57 163.46 150.57 163.25 152.81 Z" />
</g>
<g id="#fdfafeff">
<path fill="#fdfafe" opacity="1.00" d=" M 160.67 115.40 C 163.29 115.50 165.91 115.20 168.52 115.52 C 171.55 118.64 169.96 123.46 170.36 127.35 C 169.65 127.37 168.24 127.41 167.53 127.43 C 167.51 124.40 167.49 121.37 167.44 118.34 C 166.14 118.35 164.85 118.37 163.56 118.40 C 163.50 121.41 163.49 124.43 163.48 127.44 C 162.78 127.42 161.37 127.38 160.67 127.36 C 160.67 123.37 160.69 119.39 160.67 115.40 Z" />
</g>
<g id="#f8f7f6ff">
<path fill="#f8f7f6" opacity="1.00" d=" M 180.31 118.32 C 181.98 113.62 188.37 114.81 190.63 118.38 C 191.02 121.94 190.00 125.30 187.25 127.68 C 182.10 128.44 177.61 123.09 180.31 118.32 M 182.11 119.95 C 182.88 121.48 182.60 124.92 185.04 124.56 C 188.24 124.95 187.58 120.92 187.71 118.87 C 187.00 118.55 185.60 117.91 184.90 117.59 C 183.97 118.38 183.04 119.16 182.11 119.95 Z" />
</g>
<g id="#fcfbf7ff">
<path fill="#fcfbf7" opacity="1.00" d=" M 193.31 115.31 C 195.79 115.55 198.29 115.54 200.77 115.34 C 200.78 115.88 200.80 116.96 200.81 117.50 C 199.36 117.91 197.93 118.33 196.49 118.75 C 196.18 121.83 195.93 124.92 195.55 127.99 C 191.07 125.86 194.24 119.31 193.31 115.31 Z" />
</g>
<g id="#fffefdff">
<path fill="#fffefd" opacity="1.00" d=" M 202.66 115.41 C 207.56 115.66 212.49 115.23 217.38 115.56 C 220.19 118.84 218.79 123.77 219.09 127.75 C 214.29 127.68 217.07 121.55 216.29 118.51 C 215.00 118.40 213.71 118.29 212.42 118.19 C 212.32 121.25 212.30 124.30 212.30 127.36 C 211.60 127.38 210.22 127.42 209.52 127.44 C 209.51 124.48 209.50 121.52 209.50 118.56 C 208.18 118.23 206.86 117.89 205.55 117.56 C 205.48 120.85 205.47 124.14 205.46 127.43 C 204.76 127.42 203.36 127.38 202.67 127.36 C 202.68 123.37 202.70 119.39 202.66 115.41 Z" />
</g>
<g id="#e4e2e0ff">
<path fill="#e4e2e0" opacity="1.00" d=" M 221.00 118.04 C 222.49 114.61 226.20 115.14 229.25 115.37 C 229.91 116.26 230.59 117.14 231.27 118.02 C 231.30 121.11 231.30 124.21 231.31 127.31 C 228.64 127.29 225.97 127.37 223.31 127.50 C 220.72 124.58 221.90 121.22 224.33 118.67 C 223.50 118.51 221.83 118.20 221.00 118.04 Z" />
</g>
<g id="#f9f8f7ff">
<path fill="#f9f8f7" opacity="1.00" d=" M 232.49 121.81 C 231.73 116.72 237.09 114.29 241.39 115.33 C 241.54 116.33 241.69 117.33 241.84 118.33 C 239.54 118.41 234.83 117.26 235.41 120.96 C 234.45 125.17 239.86 124.45 242.48 124.78 C 239.57 129.36 232.26 127.35 232.49 121.81 Z" />
</g>
<g id="#fcfafbff">
<path fill="#fcfafb" opacity="1.00" d=" M 244.46 115.38 C 245.87 115.31 247.28 115.24 248.70 115.17 C 248.74 119.22 248.71 123.28 248.74 127.33 C 248.11 127.36 246.84 127.42 246.20 127.44 C 246.32 123.35 246.47 119.11 244.46 115.38 Z" />
</g>
<g id="#f1f0f0ff">
<path fill="#f1f0f0" opacity="1.00" d=" M 251.29 117.28 C 254.04 112.99 262.05 115.61 260.91 121.01 C 261.67 125.34 257.52 128.06 253.61 127.70 C 250.29 125.42 248.94 120.71 251.29 117.28 M 253.50 124.48 C 254.50 124.48 256.51 124.49 257.51 124.49 C 257.96 122.35 257.91 120.16 257.65 118.00 C 253.41 117.25 252.12 121.02 253.50 124.48 Z" />
</g>
<g id="#fcfcfbff">
<path fill="#fcfcfb" opacity="1.00" d=" M 263.60 115.42 C 266.20 115.52 268.82 115.22 271.41 115.57 C 274.42 118.67 272.92 123.48 273.27 127.36 C 272.58 127.38 271.18 127.44 270.48 127.46 C 270.46 124.43 270.44 121.40 270.39 118.38 C 269.10 118.36 267.81 118.36 266.53 118.37 C 266.44 121.38 266.42 124.40 266.42 127.41 C 265.72 127.41 264.32 127.40 263.62 127.40 C 263.63 123.41 263.62 119.42 263.60 115.42 Z" />
</g>
<g id="#f2eff0ff">
<path fill="#f2eff0" opacity="1.00" d=" M 295.23 125.73 C 291.42 122.47 293.78 114.83 299.07 115.18 C 301.53 114.82 302.99 117.03 304.51 118.53 C 304.46 119.33 304.35 120.94 304.29 121.75 C 301.35 121.88 298.42 122.08 295.51 122.46 C 298.05 124.63 301.31 125.04 304.34 123.63 C 304.36 124.32 304.40 125.69 304.42 126.37 C 301.44 127.23 297.62 128.51 295.23 125.73 Z" />
</g>
<g id="#f1eef2ff">
<path fill="#f1eef2" opacity="1.00" d=" M 337.20 115.16 C 341.62 114.35 345.52 116.94 345.28 121.69 C 342.25 121.82 339.22 121.96 336.21 122.28 C 338.52 124.91 341.99 124.62 345.16 124.38 C 344.99 124.96 344.67 126.14 344.50 126.72 C 341.25 127.66 337.34 127.94 335.02 125.00 C 332.91 121.70 334.59 117.64 337.20 115.16 Z" />
</g>
<g id="#f3f1f3ff">
<path fill="#f3f1f3" opacity="1.00" d=" M 371.35 127.72 C 363.52 129.54 360.76 116.79 368.16 115.32 C 375.55 113.75 376.78 124.57 371.35 127.72 M 368.04 125.18 C 371.46 124.59 372.23 121.92 371.79 118.81 C 370.97 118.47 369.35 117.80 368.54 117.46 C 366.36 119.81 366.39 122.54 368.04 125.18 Z" />
</g>
<g id="#f4f1f5ff">
<path fill="#f4f1f5" opacity="1.00" d=" M 379.24 115.39 C 381.01 115.35 382.79 115.31 384.57 115.27 C 384.67 115.83 384.87 116.95 384.97 117.51 C 383.19 117.88 381.42 118.26 379.67 118.67 C 381.60 119.91 383.56 121.12 385.52 122.35 C 385.51 123.35 385.51 124.36 385.51 125.37 C 384.68 126.13 383.86 126.90 383.05 127.67 C 380.82 127.36 378.65 126.76 376.54 126.00 C 378.72 125.18 380.95 124.52 383.20 123.89 C 381.33 122.34 379.39 120.90 377.45 119.46 C 377.45 118.94 377.46 117.88 377.46 117.36 C 378.05 116.70 378.65 116.05 379.24 115.39 Z" />
</g>
<g id="#edeaedff">
<path fill="#edeaed" opacity="1.00" d=" M 393.79 115.19 C 394.47 115.23 395.83 115.31 396.51 115.35 C 397.34 117.78 398.13 120.23 398.95 122.68 C 400.26 119.79 400.70 115.96 403.92 114.47 C 402.39 120.61 402.02 130.28 394.44 131.76 C 395.22 129.85 396.41 128.18 397.76 126.64 C 396.53 122.80 395.08 119.02 393.79 115.19 Z" />
</g>
<g id="#1d1a1dff">
<path fill="#1d1a1d" opacity="1.00" d=" M 124.31 121.12 C 123.91 118.14 127.46 118.24 129.47 117.98 C 129.53 120.27 129.54 122.56 129.50 124.85 C 127.25 124.64 123.59 124.30 124.31 121.12 Z" />
</g>
<g id="#191617ff">
<path fill="#191617" opacity="1.00" d=" M 182.11 119.95 C 183.04 119.16 183.97 118.38 184.90 117.59 C 185.60 117.91 187.00 118.55 187.71 118.87 C 187.58 120.92 188.24 124.95 185.04 124.56 C 182.60 124.92 182.88 121.48 182.11 119.95 Z" />
</g>
<g id="#1f1c1dff">
<path fill="#1f1c1d" opacity="1.00" d=" M 253.50 124.48 C 252.12 121.02 253.41 117.25 257.65 118.00 C 257.91 120.16 257.96 122.35 257.51 124.49 C 256.51 124.49 254.50 124.48 253.50 124.48 Z" />
</g>
<g id="#201e1cff">
<path fill="#201e1c" opacity="1.00" d=" M 284.44 118.52 C 286.09 118.39 287.76 118.29 289.43 118.23 C 289.42 120.41 289.41 122.59 289.37 124.77 C 285.31 125.41 283.14 122.29 284.44 118.52 Z" />
</g>
<g id="#151215ff">
<path fill="#151215" opacity="1.00" d=" M 368.04 125.18 C 366.39 122.54 366.36 119.81 368.54 117.46 C 369.35 117.80 370.97 118.47 371.79 118.81 C 372.23 121.92 371.46 124.59 368.04 125.18 Z" />
</g>
<g id="#e9e7e9ff">
<path fill="#e9e7e9" opacity="1.00" d=" M 26.58 139.55 C 27.55 139.51 28.51 139.47 29.48 139.43 C 29.47 141.15 29.47 142.87 29.45 144.59 C 34.23 143.97 39.00 147.69 37.50 152.78 C 35.88 158.63 28.58 156.97 23.99 157.21 C 23.52 155.89 23.03 154.57 22.54 153.26 C 20.51 153.22 18.47 153.19 16.44 153.17 C 15.49 155.29 14.15 157.20 11.74 157.76 C 13.84 151.71 16.02 145.58 19.44 140.12 C 22.05 144.99 23.69 150.31 26.30 155.18 C 26.81 149.98 26.60 144.76 26.58 139.55 M 29.64 147.33 C 29.54 149.80 29.54 152.28 29.63 154.76 C 32.98 154.65 35.25 152.64 34.93 149.22 C 33.19 148.53 31.42 147.91 29.64 147.33 Z" />
</g>
<g id="#faf9f9ff">
<path fill="#faf9f9" opacity="1.00" d=" M 187.84 139.45 C 188.52 139.48 189.88 139.55 190.56 139.58 C 190.56 145.47 190.55 151.36 190.57 157.25 C 186.93 157.19 181.82 158.17 180.12 153.93 C 177.84 149.05 182.49 143.63 187.70 145.13 C 187.74 143.23 187.78 141.34 187.84 139.45 M 182.23 153.18 C 183.99 153.73 185.76 154.27 187.54 154.77 C 187.70 152.35 187.99 149.84 187.25 147.47 C 183.71 146.94 182.03 150.11 182.23 153.18 Z" />
</g>
<g id="#fefcfbff">
<path fill="#fefcfb" opacity="1.00" d=" M 205.49 139.41 C 206.43 139.48 207.36 139.56 208.30 139.63 C 208.41 145.53 207.49 151.65 209.71 157.28 C 208.30 156.77 206.90 156.23 205.53 155.64 C 205.43 150.23 205.46 144.82 205.49 139.41 Z" />
</g>
<g id="#f4f2f0ff">
<path fill="#f4f2f0" opacity="1.00" d=" M 217.55 143.18 C 219.76 141.14 222.61 140.49 225.55 140.74 C 225.55 141.35 225.54 142.56 225.53 143.16 C 223.52 143.66 221.52 144.26 219.56 144.91 C 222.45 147.51 226.45 149.14 227.79 153.10 C 225.87 156.58 222.13 157.98 218.33 156.98 C 218.32 156.34 218.29 155.08 218.28 154.44 C 219.84 154.42 221.40 154.39 222.96 154.37 C 223.41 153.75 224.32 152.52 224.77 151.90 C 222.29 150.29 219.76 148.72 217.51 146.79 C 217.53 145.58 217.54 144.38 217.55 143.18 Z" />
</g>
<g id="#c2bfc0ff">
<path fill="#c2bfc0" opacity="1.00" d=" M 289.15 157.08 C 291.71 151.33 293.42 145.16 296.99 139.91 C 300.04 145.61 302.47 151.63 304.54 157.75 C 301.86 157.58 300.55 155.38 299.46 153.27 C 297.65 153.26 295.84 153.25 294.04 153.24 C 293.35 154.61 292.65 155.98 291.97 157.36 C 291.26 157.29 289.85 157.15 289.15 157.08 Z" />
</g>
<g id="#fbfafaff">
<path fill="#fbfafa" opacity="1.00" d=" M 252.69 145.73 C 253.84 144.37 255.00 143.02 256.19 141.68 C 256.43 142.43 256.89 143.91 257.12 144.65 C 257.79 144.83 259.11 145.18 259.77 145.36 C 259.73 145.90 259.63 146.97 259.59 147.51 C 258.90 147.56 257.53 147.65 256.84 147.70 C 256.82 149.54 256.80 151.39 256.78 153.24 C 257.67 153.79 258.57 154.33 259.47 154.88 C 259.52 155.39 259.62 156.41 259.67 156.92 C 257.96 156.78 256.26 156.64 254.56 156.50 C 254.30 152.85 254.58 149.02 252.69 145.73 Z" />
</g>
<g id="#d3d1d3ff">
<path fill="#d3d1d3" opacity="1.00" d=" M 306.50 153.02 C 302.82 146.46 309.94 143.97 315.26 144.08 C 316.03 148.99 315.02 154.61 309.20 155.33 C 311.73 155.51 314.24 155.96 316.66 156.76 C 316.62 157.53 316.55 159.06 316.52 159.83 C 313.16 161.18 308.16 162.83 305.77 159.03 C 305.63 157.00 306.12 155.00 306.50 153.02 Z" />
</g>
<g id="#eeecefff">
<path fill="#eeecef" opacity="1.00" d=" M 40.53 145.52 C 43.56 144.91 47.69 144.00 49.40 147.42 C 49.96 150.47 49.69 153.59 49.82 156.68 C 46.75 156.15 40.51 158.73 40.28 153.95 C 39.55 150.03 44.38 149.26 46.87 147.73 C 44.73 147.98 42.60 148.29 40.46 148.56 C 40.49 147.55 40.51 146.53 40.53 145.52 Z" />
</g>
<g id="#f5f3f6ff">
<path fill="#f5f3f6" opacity="1.00" d=" M 52.46 146.09 C 54.79 145.26 57.26 145.10 59.71 145.06 C 59.74 145.62 59.81 146.75 59.84 147.31 C 58.16 147.72 56.49 148.15 54.83 148.60 C 56.72 149.80 58.63 150.99 60.52 152.22 C 60.52 153.41 60.53 154.61 60.55 155.81 C 58.03 157.14 55.23 157.24 52.48 156.67 C 52.50 156.20 52.53 155.27 52.55 154.81 C 54.48 154.34 56.40 153.85 58.33 153.36 C 56.39 152.01 54.45 150.68 52.51 149.34 C 52.50 148.25 52.48 147.17 52.46 146.09 Z" />
</g>
<g id="#f4f2f5ff">
<path fill="#f4f2f5" opacity="1.00" d=" M 71.98 154.06 C 69.67 149.93 72.93 145.58 76.99 144.33 C 80.37 145.36 82.44 148.04 82.66 151.57 C 79.58 151.66 76.49 151.70 73.42 151.91 C 75.94 154.87 79.52 154.43 82.87 153.37 C 81.78 158.68 74.23 158.32 71.98 154.06 Z" />
</g>
<g id="#f6f5f7ff">
<path fill="#f6f5f7" opacity="1.00" d=" M 83.49 150.98 C 83.12 146.12 88.46 144.20 92.46 145.31 C 92.57 145.94 92.77 147.20 92.88 147.83 C 91.35 147.72 89.83 147.61 88.31 147.48 C 86.91 149.13 86.33 151.18 86.17 153.31 C 88.39 153.81 90.62 154.25 92.87 154.60 C 92.72 155.07 92.41 156.01 92.26 156.48 C 88.25 158.47 82.93 155.76 83.49 150.98 Z" />
</g>
<g id="#fdfbfeff">
<path fill="#fdfbfe" opacity="1.00" d=" M 95.55 144.85 C 96.94 144.83 98.33 144.82 99.72 144.81 C 99.77 148.96 99.76 153.11 99.76 157.26 C 99.13 157.26 97.87 157.26 97.25 157.26 C 97.40 153.05 97.35 148.75 95.55 144.85 Z" />
<path fill="#fdfbfe" opacity="1.00" d=" M 140.41 145.35 C 143.08 145.46 145.79 144.91 148.42 145.54 C 151.04 148.68 149.37 153.43 149.80 157.23 C 149.17 157.23 147.92 157.23 147.30 157.23 C 147.29 154.44 147.28 151.64 147.31 148.85 C 146.57 148.43 145.09 147.57 144.35 147.15 C 142.78 150.31 143.33 153.91 143.23 157.31 C 142.54 157.27 141.15 157.18 140.45 157.14 C 140.47 153.21 140.49 149.28 140.41 145.35 Z" />
</g>
<g id="#fcfbfdff">
<path fill="#fcfbfd" opacity="1.00" d=" M 102.49 145.31 C 107.42 145.57 112.46 144.91 117.33 145.62 C 120.04 148.67 118.22 153.47 118.73 157.23 C 118.10 157.23 116.86 157.24 116.23 157.24 C 115.78 153.98 117.47 149.28 114.03 147.27 C 110.63 149.20 112.73 154.02 112.17 157.24 C 111.46 157.23 110.05 157.23 109.34 157.22 C 109.09 153.42 111.07 147.35 105.39 147.24 C 105.30 150.61 105.33 153.98 105.34 157.36 C 104.63 157.30 103.21 157.19 102.50 157.13 C 102.53 153.19 102.55 149.25 102.49 145.31 Z" />
</g>
<g id="#f0eef0ff">
<path fill="#f0eef0" opacity="1.00" d=" M 126.77 151.00 C 126.57 145.08 133.85 142.99 137.53 147.18 C 137.59 148.65 137.66 150.13 137.73 151.61 C 134.80 151.67 131.87 151.72 128.95 151.96 C 131.41 154.46 134.60 154.68 137.73 153.44 C 137.66 154.45 137.59 155.46 137.53 156.48 C 133.13 158.31 126.46 156.81 126.77 151.00 Z" />
</g>
<g id="#f1efefff">
<path fill="#f1efef" opacity="1.00" d=" M 193.08 154.98 C 189.61 150.98 193.48 143.34 198.91 145.01 C 202.06 145.59 202.80 148.84 203.02 151.55 C 199.99 151.66 196.96 151.71 193.94 151.95 C 196.30 154.63 199.63 154.64 202.74 153.46 C 202.66 154.46 202.58 155.46 202.51 156.47 C 199.34 157.16 195.31 158.08 193.08 154.98 Z" />
</g>
<g id="#f6f5f3ff">
<path fill="#f6f5f3" opacity="1.00" d=" M 228.33 153.57 C 227.79 149.43 229.85 145.54 233.98 144.30 C 237.29 145.36 239.47 147.94 239.88 151.42 C 236.80 151.69 233.70 151.65 230.62 151.95 C 232.96 154.65 236.31 154.68 239.38 153.34 C 239.36 154.08 239.33 155.56 239.31 156.30 C 235.30 157.92 230.98 157.12 228.33 153.57 Z" />
</g>
<g id="#f4f2f3ff">
<path fill="#f4f2f3" opacity="1.00" d=" M 240.37 148.65 C 242.48 145.62 245.87 144.36 249.45 145.34 C 249.59 145.88 249.85 146.97 249.98 147.51 C 246.15 147.18 242.30 148.80 243.32 153.31 C 245.50 153.80 247.69 154.24 249.90 154.59 C 249.75 155.07 249.45 156.04 249.30 156.52 C 243.91 159.28 239.49 153.87 240.37 148.65 Z" />
</g>
<g id="#f6f4f4ff">
<path fill="#f6f4f4" opacity="1.00" d=" M 264.26 145.30 C 271.80 141.76 275.11 155.20 267.90 157.02 C 261.05 159.22 258.04 147.71 264.26 145.30 M 263.79 148.68 C 263.70 149.68 263.53 151.70 263.44 152.70 C 266.12 155.37 268.41 154.19 269.78 150.98 C 268.51 148.29 266.52 146.77 263.79 148.68 Z" />
</g>
<g id="#fefdfdff">
<path fill="#fefdfd" opacity="1.00" d=" M 274.51 145.10 C 277.21 145.47 279.92 145.41 282.63 145.22 C 282.57 145.71 282.44 146.69 282.37 147.18 C 280.73 147.68 279.11 148.21 277.49 148.75 C 277.34 151.61 277.29 154.47 277.23 157.33 C 276.55 157.28 275.19 157.17 274.51 157.12 C 274.51 153.11 274.51 149.11 274.51 145.10 Z" />
</g>
<g id="#fbf9fbff">
<path fill="#fbf9fb" opacity="1.00" d=" M 317.78 144.94 C 320.41 145.53 323.09 145.48 325.75 145.17 C 325.71 145.66 325.63 146.63 325.59 147.12 C 319.90 147.33 320.18 152.90 320.55 157.15 C 319.85 157.18 318.46 157.25 317.76 157.28 C 317.74 153.17 317.74 149.06 317.78 144.94 Z" />
</g>
<g id="#f3f1f4ff">
<path fill="#f3f1f4" opacity="1.00" d=" M 329.25 145.26 C 336.79 141.82 340.12 155.18 332.94 157.02 C 326.01 159.39 322.98 147.67 329.25 145.26 M 328.34 152.76 C 329.00 153.22 330.33 154.13 330.99 154.59 C 331.59 154.30 332.79 153.71 333.40 153.41 C 333.69 152.70 334.28 151.28 334.58 150.57 C 333.38 149.26 332.10 148.03 330.81 146.84 C 329.62 148.65 328.84 150.66 328.34 152.76 Z" />
</g>
<g id="#f9f7f9ff">
<path fill="#f9f7f9" opacity="1.00" d=" M 338.25 145.08 C 342.24 145.16 349.04 144.05 348.85 150.01 C 350.25 155.19 345.19 157.80 340.78 157.49 C 340.78 158.75 340.78 160.00 340.78 161.27 C 340.14 161.27 338.86 161.28 338.22 161.29 C 338.22 155.88 338.26 150.48 338.25 145.08 M 341.33 148.36 C 339.78 150.91 341.01 156.83 344.73 153.77 C 349.08 151.87 343.98 145.09 341.33 148.36 Z" />
</g>
<g id="#f2f0f2ff">
<path fill="#f2f0f2" opacity="1.00" d=" M 351.86 155.15 C 348.62 151.99 350.56 145.74 355.03 144.92 C 357.81 144.15 359.82 146.73 361.50 148.50 C 361.41 149.29 361.23 150.86 361.14 151.65 C 358.21 151.66 355.28 151.70 352.37 151.90 C 354.87 154.96 358.46 154.37 361.83 153.37 C 361.00 158.05 354.52 158.48 351.86 155.15 Z" />
<path fill="#f2f0f2" opacity="1.00" d=" M 387.34 145.47 C 390.58 144.53 393.98 144.66 396.47 147.17 C 396.45 150.32 396.46 153.48 396.52 156.64 C 394.28 156.64 392.04 156.80 389.82 157.08 C 389.30 156.87 388.26 156.44 387.74 156.23 C 387.30 155.01 386.86 153.80 386.43 152.59 C 388.10 150.46 390.38 149.00 392.97 148.23 L 392.76 147.47 C 390.98 147.87 389.19 148.28 387.42 148.68 C 387.39 147.61 387.36 146.54 387.34 145.47 Z" />
</g>
<g id="#f6f5f6ff">
<path fill="#f6f5f6" opacity="1.00" d=" M 362.47 150.97 C 362.13 146.13 367.41 144.16 371.42 145.32 C 371.55 145.95 371.80 147.20 371.93 147.83 C 370.38 147.71 368.84 147.60 367.30 147.47 C 365.98 149.15 365.29 151.14 365.13 153.26 C 367.35 153.77 369.59 154.21 371.85 154.59 C 371.70 155.06 371.41 156.01 371.26 156.49 C 367.28 158.46 361.84 155.76 362.47 150.97 Z" />
</g>
<g id="#fcfcfcff">
<path fill="#fcfcfc" opacity="1.00" d=" M 399.26 144.52 C 400.30 144.94 401.35 145.36 402.40 145.79 C 403.86 145.45 405.33 145.12 406.81 144.80 C 406.77 145.38 406.68 146.54 406.64 147.12 C 401.15 147.54 401.41 153.08 401.70 157.24 C 401.08 157.24 399.84 157.24 399.22 157.24 C 399.20 153.00 399.17 148.76 399.26 144.52 Z" />
</g>
<g id="#f4f1f4ff">
<path fill="#f4f1f4" opacity="1.00" d=" M 417.25 145.28 C 424.83 141.72 428.11 155.14 420.92 157.06 C 413.96 159.25 411.33 147.74 417.25 145.28 M 416.48 149.44 C 416.57 150.30 416.75 152.04 416.83 152.91 C 417.43 153.40 418.64 154.38 419.24 154.87 C 420.46 153.65 421.63 152.39 422.78 151.10 C 421.86 147.79 418.82 146.65 416.48 149.44 Z" />
</g>
<g id="#1c191cff">
<path fill="#1c191c" opacity="1.00" d=" M 29.64 147.33 C 31.42 147.91 33.19 148.53 34.93 149.22 C 35.25 152.64 32.98 154.65 29.63 154.76 C 29.54 152.28 29.54 149.80 29.64 147.33 Z" />
</g>
<g id="#1a181bff">
<path fill="#1a181b" opacity="1.00" d=" M 163.25 152.81 C 163.46 150.57 164.44 148.57 165.86 146.85 C 169.32 148.54 169.73 152.83 166.36 154.85 C 165.58 154.34 164.03 153.32 163.25 152.81 Z" />
<path fill="#1a181b" opacity="1.00" d=" M 328.34 152.76 C 328.84 150.66 329.62 148.65 330.81 146.84 C 332.10 148.03 333.38 149.26 334.58 150.57 C 334.28 151.28 333.69 152.70 333.40 153.41 C 332.79 153.71 331.59 154.30 330.99 154.59 C 330.33 154.13 329.00 153.22 328.34 152.76 Z" />
</g>
<g id="#181616ff">
<path fill="#181616" opacity="1.00" d=" M 182.23 153.18 C 182.03 150.11 183.71 146.94 187.25 147.47 C 187.99 149.84 187.70 152.35 187.54 154.77 C 185.76 154.27 183.99 153.73 182.23 153.18 Z" />
</g>
<g id="#211f20ff">
<path fill="#211f20" opacity="1.00" d=" M 263.79 148.68 C 266.52 146.77 268.51 148.29 269.78 150.98 C 268.41 154.19 266.12 155.37 263.44 152.70 C 263.53 151.70 263.70 149.68 263.79 148.68 Z" />
</g>
<g id="#141115ff">
<path fill="#141115" opacity="1.00" d=" M 341.33 148.36 C 343.98 145.09 349.08 151.87 344.73 153.77 C 341.01 156.83 339.78 150.91 341.33 148.36 Z" />
</g>
<g id="#201d20ff">
<path fill="#201d20" opacity="1.00" d=" M 416.48 149.44 C 418.82 146.65 421.86 147.79 422.78 151.10 C 421.63 152.39 420.46 153.65 419.24 154.87 C 418.64 154.38 417.43 153.40 416.83 152.91 C 416.75 152.04 416.57 150.30 416.48 149.44 Z" />
</g>
</svg>
